<svg width="24" height="24" viewBox="0 0 24 24" fill="none" xmlns="http://www.w3.org/2000/svg">
<g transform="rotate(90 12 12)">
<g>
<path d="M2.454 16.0605C2.73529 16.3417 3.11675 16.4997 3.5145 16.4997C3.91225 16.4997 4.29371 16.3417 4.575 16.0605L12 8.6355L19.425 16.0605C19.7079 16.3337 20.0868 16.4849 20.4801 16.4815C20.8734 16.4781 21.2496 16.3203 21.5277 16.0422C21.8058 15.7641 21.9636 15.3879 21.967 14.9946C21.9704 14.6013 21.8192 14.2224 21.546 13.9395L13.0605 5.454C12.7792 5.17279 12.3977 5.01482 12 5.01482C11.6023 5.01482 11.2208 5.17279 10.9395 5.454L2.454 13.9395C2.17279 14.2208 2.01482 14.6023 2.01482 15C2.01482 15.3977 2.17279 15.7792 2.454 16.0605Z" fill="currentColor"/>
</g>
</g>
</svg>
