<svg width="14" height="16" viewBox="0 0 14 16" fill="none" xmlns="http://www.w3.org/2000/svg">
<g>
<path d="M14 9.25C14 11.3219 12.3219 13 10.25 13H10C9.44687 13 9 12.5531 9 12C9 11.4469 9.44687 11 10 11H10.25C11.2156 11 12 10.2156 12 9.25V9H10C8.89688 9 8 8.10312 8 7V5C8 3.89688 8.89688 3 10 3H12C13.1031 3 14 3.89688 14 5V9.25ZM6 9.25C6 11.3219 4.32188 13 2.25 13H2C1.44687 13 1 12.5531 1 12C1 11.4469 1.44687 11 2 11H2.25C3.21562 11 4 10.2156 4 9.25V9H2C0.896875 9 0 8.10312 0 7V5C0 3.89688 0.896875 3 2 3H4C5.10312 3 6 3.89688 6 5V9.25Z" fill="currentColor"/>
</g>
</svg>
