<svg xmlns="http://www.w3.org/2000/svg" width="360" height="814" viewBox="0 0 360 814" fill="none">
<path transform="translate(0 472)" d="M743.933 76.6203C712.306 85.8398 679.775 90.5806 647.249 90.7139C598.773 90.9051 551.361 81.5015 503.013 71.0121C484.084 66.9013 465.33 62.7218 447.195 58.6811C281.688 21.8108 110.544 -16.3174 -55.4815 20.3691C-92.806 28.6162 -131.099 41.2309 -169.295 57.8629C-203.051 72.5592 -238.019 90.9679 -273.223 112.576C-334.204 150 -388.921 192.422 -439.045 233.011L-422.496 248.447C-369.062 205.368 -311.178 160.698 -249.052 123.337C-216.074 103.505 -184.664 87.3751 -153.027 74.0226C-118.42 59.4154 -84.5696 48.5539 -49.5468 40.8121C110.535 5.44854 278.645 42.9004 441.225 79.1178L441.289 79.1322C459.53 83.1964 478.389 87.3966 497.188 91.4786C545.079 101.872 596.125 112.006 647.36 111.803C671.923 111.708 696.759 109.116 721.177 104.107C745.216 99.1726 768.816 91.9014 791.327 82.4954C832.283 65.3751 869.395 41.1507 899.115 12.1912L879.207 -4.05234e-05C861.726 16.7697 841.743 31.6837 819.728 44.3885C796.17 57.9831 770.668 68.8271 743.933 76.6203Z" fill="#F43D3D"/>
<path transform="translate(0 484)" d="M-285.474 20.977C-252.114 20.977 -219.524 25.4654 -188.61 34.3139C-142.541 47.5081 -100.964 69.4909 -58.8934 92.7598C-42.4246 101.873 -26.1458 111.004 -10.404 119.833C133.263 200.398 281.822 283.71 452.69 294.794C491.102 297.286 532.021 295.912 574.304 290.708C611.673 286.111 651.54 278.335 692.792 267.596C764.247 248.998 831.573 223.941 893.875 199.352L883.776 180.175C817.429 206.207 746.282 232.518 673.762 250.74C635.267 260.413 599.605 267.014 564.736 270.923C526.591 275.201 490.526 276.142 454.481 273.806C289.734 263.11 143.808 181.276 2.68195 102.136L2.62628 102.104C-13.2072 93.2246 -29.5777 84.0454 -45.9352 74.9945C-87.6064 51.9423 -132.366 28.2657 -181.058 14.3215C-204.401 7.63451 -228.909 3.23452 -253.899 1.23842C-278.502 -0.723464 -303.538 -0.352759 -328.314 2.33913C-373.395 7.24384 -417.408 19.9334 -456.125 39.1444L-441.66 56.1769C-418.983 45.127 -394.605 36.5238 -369.102 30.5726C-341.81 24.205 -313.673 20.977 -285.474 20.977Z" fill="#FBBD1D"/>
<path transform="translate(0 394)" d="M-318.653 347.311C-289.361 333.404 -258.283 323.768 -226.285 318.67C-178.596 311.078 -130.03 313.096 -80.3243 316.04C-60.8641 317.197 -41.5614 318.448 -22.896 319.656C147.449 330.682 323.597 342.085 479.706 280.609C514.802 266.789 549.976 248.521 584.248 226.312C614.537 206.688 645.275 183.222 675.605 156.572C728.142 110.412 773.511 60.2882 814.725 12.6703L795.337 3.84172e-05C751.363 50.5741 703.327 103.395 649.649 149.668C621.155 174.23 593.464 194.908 564.992 212.886C533.846 232.553 502.696 248.417 469.765 261.388C319.242 320.653 146.217 309.453 -21.1147 298.623L-21.1808 298.619C-39.9549 297.403 -59.3648 296.148 -78.6928 295C-127.929 292.08 -180.219 289.898 -230.623 297.923C-254.787 301.768 -278.72 308.112 -301.757 316.773C-324.436 325.303 -346.215 336.066 -366.494 348.765C-403.385 371.876 -435.069 401.394 -458.525 434.446L-436.48 443.409C-422.63 424.228 -405.946 406.492 -386.817 390.621C-366.347 373.638 -343.413 359.067 -318.653 347.311Z" fill="#007AFC"/>
<path transform="matrix(0.8657 -0.5005 0.4995 0.8663 254.875 458.861)" d="M23.8565 4.427L23.5009 4.49086C18.138 5.4571 12.6693 4.0666 8.53296 0.685808L8.25903 0.461673C6.80237 -0.728602 4.58817 0.54845 4.8867 2.40826L4.94358 2.75788C5.79162 8.04274 4.25269 13.4828 0.731133 17.6545L0.497007 17.9302C-0.741875 19.399 0.502383 21.557 2.39215 21.2171L2.74716 21.1522C8.11129 20.187 13.5795 21.5778 17.7156 24.957L17.9895 25.1811C19.4469 26.3727 21.6606 25.0959 21.3618 23.2362L21.3055 22.8863C20.4574 17.6015 21.9958 12.1617 25.5179 7.98969L25.7502 7.7137C26.9903 6.24416 25.7467 4.08717 23.8563 4.4278L23.8565 4.427Z" fill="#FBBD1D"/>
<path transform="matrix(0.9805 0.1963 -0.1975 0.9803 80.898 551.029)" d="M19.3369 10.5138L19.1255 10.3834C15.9357 8.41781 13.7665 5.15308 13.188 1.44815L13.1498 1.20266C12.946 -0.101898 11.2285 -0.44759 10.5333 0.676997L10.403 0.888756C8.42739 4.08428 5.15736 6.25913 1.44949 6.84495L1.20371 6.88303C-0.101261 7.08976 -0.447661 8.80955 0.676108 9.50247L0.88768 9.63211C4.07769 11.5988 6.24645 14.8634 6.8255 18.5674L6.8637 18.8129C7.06733 20.1185 8.78442 20.4641 9.47942 19.3395L9.61012 19.1278C11.5858 15.9323 14.8554 13.7573 18.5637 13.1716L18.8086 13.1325C20.1146 12.926 20.4608 11.207 19.3364 10.5141L19.3369 10.5138Z" fill="#00C0FC"/>
</svg>
